<svg width="30" height="30" viewBox="0 0 30 30" fill="none" xmlns="http://www.w3.org/2000/svg">
<path d="M21.25 26.25H8.75C5.99313 26.25 3.75 24.0069 3.75 21.25V8.75C3.75 5.99313 5.99313 3.75 8.75 3.75H21.25C24.0069 3.75 26.25 5.99313 26.25 8.75V21.25C26.25 24.0069 24.0069 26.25 21.25 26.25Z" fill="url(#paint0_linear_899_35)"/>
<path opacity="0.05" d="M21.25 10C21.3613 10 21.4669 10.0194 21.57 10.0462L16.68 14.9369C16.2162 15.4 15.6081 15.6313 15 15.6313C14.3919 15.6313 13.7838 15.4 13.32 14.9369L8.43 10.0462C8.53312 10.0194 8.63875 10 8.75 10H21.25ZM22.4537 10.93C22.4806 11.0331 22.5 11.1387 22.5 11.25V18.75C22.5 18.8613 22.4806 18.9669 22.4537 19.07L18.3837 15L22.4537 10.93ZM7.54625 10.93L11.6163 15L7.54687 19.0694C7.51937 18.9669 7.5 18.8613 7.5 18.75V11.25C7.5 11.1387 7.51938 11.0331 7.54625 10.93ZM17.4937 15.8775L21.57 19.9538C21.4669 19.9806 21.3613 20 21.25 20H8.75C8.63875 20 8.53312 19.9806 8.43 19.9538L12.5063 15.8775C13.2044 16.5419 14.1 16.8806 15 16.8806C15.9 16.8806 16.7956 16.5419 17.4937 15.8775ZM21.25 9.375H8.75C8.5975 9.375 8.44063 9.39687 8.27 9.4425C8.05375 9.5 7.885 9.66812 7.82687 9.88437C7.76937 10.0975 7.82875 10.3244 7.98187 10.4819C7.86375 10.3675 7.70688 10.305 7.54625 10.305C7.49188 10.305 7.4375 10.3119 7.38375 10.3262C7.16813 10.3844 6.99938 10.5531 6.94188 10.7694C6.89688 10.9406 6.875 11.0975 6.875 11.25V18.75C6.875 18.9025 6.89687 19.0594 6.9425 19.23C7 19.4462 7.16812 19.615 7.38437 19.6731C7.43812 19.6875 7.4925 19.6944 7.54687 19.6944C7.7075 19.6944 7.86437 19.6325 7.98187 19.5181C7.82875 19.6763 7.76937 19.9031 7.82687 20.1156C7.885 20.3313 8.05375 20.5 8.27 20.5575C8.44063 20.6031 8.5975 20.625 8.75 20.625H21.25C21.4025 20.625 21.5594 20.6031 21.73 20.5575C21.9463 20.5 22.115 20.3319 22.1731 20.1156C22.2306 19.9025 22.1713 19.6756 22.0181 19.5181C22.1363 19.6325 22.2931 19.6944 22.4531 19.6944C22.5075 19.6944 22.5619 19.6875 22.6156 19.6731C22.8313 19.615 23 19.4462 23.0575 19.23C23.1031 19.0594 23.125 18.9025 23.125 18.75V11.25C23.125 11.0975 23.1031 10.9406 23.0575 10.77C23 10.5538 22.8319 10.385 22.6156 10.3269C22.5619 10.3125 22.5075 10.3056 22.4531 10.3056C22.2925 10.3056 22.1356 10.3675 22.0175 10.4819C22.1706 10.3237 22.23 10.0969 22.1725 9.88437C22.1144 9.66875 21.9456 9.5 21.7294 9.4425C21.5594 9.39687 21.4025 9.375 21.25 9.375Z" fill="black"/>
<path opacity="0.07" d="M21.25 9.6875H8.75C8.62313 9.6875 8.49625 9.70562 8.35 9.74437C8.24187 9.77312 8.1575 9.8575 8.12875 9.965C8.1 10.0731 8.13063 10.1881 8.20938 10.2669L13.0994 15.1575C13.6062 15.6644 14.2813 15.9437 15 15.9437C15.7187 15.9437 16.3938 15.6644 16.9006 15.1581L21.7906 10.2675C21.8694 10.1887 21.9006 10.0731 21.8712 9.96562C21.8425 9.8575 21.7575 9.77375 21.65 9.745C21.5037 9.70563 21.3769 9.6875 21.25 9.6875ZM22.4537 10.6175C22.3719 10.6175 22.2919 10.6494 22.2325 10.7088L18.1631 14.7787C18.0413 14.9006 18.0413 15.0987 18.1631 15.2206L22.2325 19.29C22.2919 19.3494 22.3719 19.3812 22.4537 19.3812C22.4806 19.3812 22.5081 19.3775 22.535 19.3706C22.6431 19.3419 22.7269 19.2569 22.7556 19.1494C22.7944 19.0037 22.8125 18.8769 22.8125 18.75V11.25C22.8125 11.1231 22.7944 10.9963 22.7556 10.85C22.7269 10.7419 22.6425 10.6575 22.535 10.6288C22.5081 10.6213 22.4806 10.6175 22.4537 10.6175ZM7.54625 10.6175C7.51938 10.6175 7.49188 10.6212 7.465 10.6281C7.35688 10.6569 7.27312 10.7419 7.24437 10.8494C7.20562 10.9962 7.1875 11.1231 7.1875 11.25V18.75C7.1875 18.8769 7.20562 19.0037 7.24437 19.15C7.27312 19.2581 7.3575 19.3425 7.465 19.3712C7.49188 19.3787 7.51938 19.3819 7.54625 19.3819C7.62813 19.3819 7.70813 19.35 7.7675 19.2906L11.8369 15.2212C11.9587 15.0994 11.9587 14.9012 11.8369 14.7794L7.7675 10.7094C7.70813 10.65 7.62813 10.6175 7.54625 10.6175ZM17.4937 15.565C17.4162 15.565 17.3388 15.5937 17.2781 15.6512C16.6563 16.2425 15.8475 16.5681 15 16.5681C14.1525 16.5681 13.3431 16.2425 12.7219 15.6512C12.6612 15.5937 12.5838 15.565 12.5063 15.565C12.4263 15.565 12.3463 15.5956 12.285 15.6562L8.20875 19.7325C8.13 19.8112 8.09875 19.9269 8.12813 20.0344C8.1575 20.1419 8.24188 20.2262 8.34938 20.255C8.49625 20.2944 8.62313 20.3125 8.75 20.3125H21.25C21.3769 20.3125 21.5037 20.2944 21.65 20.2556C21.7581 20.2269 21.8425 20.1425 21.8712 20.035C21.9 19.9275 21.8694 19.8119 21.7906 19.7331L17.7144 15.6569C17.6538 15.5956 17.5737 15.565 17.4937 15.565Z" fill="black"/>
<path d="M22.4537 10.93L18.3837 15L22.4531 19.0694C22.4806 18.9669 22.5 18.8613 22.5 18.75V11.25C22.5 11.1387 22.4806 11.0331 22.4537 10.93ZM16.68 14.9369L21.57 10.0462C21.4669 10.0194 21.3613 10 21.25 10H8.75C8.63875 10 8.53312 10.0194 8.43 10.0462L13.32 14.9369C14.2469 15.8625 15.7531 15.8625 16.68 14.9369ZM7.54625 10.93C7.51938 11.0331 7.5 11.1387 7.5 11.25V18.75C7.5 18.8613 7.51938 18.9669 7.54625 19.07L11.6163 15L7.54625 10.93ZM15 16.8806C14.1 16.8806 13.2044 16.5419 12.5063 15.8775L8.43 19.9538C8.53312 19.9806 8.63875 20 8.75 20H21.25C21.3613 20 21.4669 19.9806 21.57 19.9538L17.4937 15.8775C16.7956 16.5419 15.9 16.8806 15 16.8806Z" fill="#F9F9F9"/>
<defs>
<linearGradient id="paint0_linear_899_35" x1="15" y1="26.25" x2="15" y2="3.87937" gradientUnits="userSpaceOnUse">
<stop stop-color="#1AC8FC"/>
<stop offset="0.258" stop-color="#1BB6FA"/>
<stop offset="0.775" stop-color="#1C86F5"/>
<stop offset="1" stop-color="#1D70F2"/>
</linearGradient>
</defs>
</svg>
