<svg width="24" height="24" viewBox="0 0 24 24" fill="none" xmlns="http://www.w3.org/2000/svg">
<g clip-path="url(#clip0_287_60)">
<path fill-rule="evenodd" clip-rule="evenodd" d="M0.799149 8.44547C1.12415 5.38557 3.72595 3.0741 6.81487 3.0741H17.1854C20.2743 3.0741 22.8761 5.38559 23.2011 8.44547L23.9736 15.7178C24.2702 18.5102 22.0608 20.9258 19.2492 20.9258C17.3757 20.9258 15.6726 19.8324 14.9084 18.1274L14.4487 17.1016H9.55164L9.09187 18.1274C8.32773 19.8323 6.62465 20.9258 4.75118 20.9258C1.93942 20.9258 -0.269841 18.5102 0.0267338 15.7178L0.799149 8.44547ZM7.54329 7.53309C8.13502 7.53309 8.61471 8.01278 8.61471 8.60452V9.51397H9.52377C10.1155 9.51397 10.5952 9.99367 10.5952 10.5854C10.5952 11.1771 10.1155 11.6568 9.52377 11.6568H8.61471V12.566C8.61471 13.1578 8.13502 13.6375 7.54329 13.6375C6.95155 13.6375 6.47186 13.1578 6.47186 12.566V11.6568H5.56222C4.97049 11.6568 4.49079 11.1771 4.49079 10.5854C4.49079 9.99367 4.97049 9.51397 5.56222 9.51397H6.47186V8.60452C6.47186 8.01278 6.95155 7.53309 7.54329 7.53309ZM17.9421 10.3106C17.2342 10.3106 16.6605 9.73677 16.6605 9.02896C16.6605 8.32117 17.2342 7.74738 17.9421 7.74738C18.6499 7.74738 19.2237 8.32117 19.2237 9.02896C19.2237 9.73677 18.6499 10.3106 17.9421 10.3106ZM14.114 11.5757L14.1145 11.6049C14.1301 12.2992 14.6978 12.8573 15.3958 12.8573C16.1036 12.8573 16.6774 12.2835 16.6774 11.5757L16.6769 11.5465C16.6614 10.8522 16.0937 10.2941 15.3956 10.2941C14.6878 10.2941 14.114 10.8679 14.114 11.5757Z" fill="#FE506B"/>
</g>
<defs>
<clipPath id="clip0_287_60">
<rect width="24" height="24" fill="white"/>
</clipPath>
</defs>
</svg>
