<svg width="24" height="24" viewBox="0 0 24 24" fill="none" xmlns="http://www.w3.org/2000/svg">
<g clip-path="url(#clip0_287_54)">
<path fill-rule="evenodd" clip-rule="evenodd" d="M0 12C0 7.58784 2.38119 3.73185 5.92858 1.64702V12C5.92858 12.0291 5.92975 12.0578 5.93201 12.0863C5.95245 13.551 6.49178 14.8903 7.37446 15.9286H0.657825C0.231557 14.6977 0 13.3759 0 12ZM12.0868 18.0679C12.0581 18.0703 12.0292 18.0715 12 18.0715H1.64702C3.73185 21.6189 7.58784 24 12 24C13.3759 24 14.6977 23.7684 15.9286 23.3422V16.6255C14.8904 17.5082 13.5513 18.0475 12.0868 18.0679ZM18.0679 11.9132C18.0703 11.9419 18.0715 11.9708 18.0715 12V22.3529C21.6189 20.2682 24 16.4122 24 12C24 10.6241 23.7684 9.30231 23.3422 8.07144H16.6255C17.5082 9.10961 18.0475 10.4487 18.0679 11.9132ZM11.9137 5.93201C11.9422 5.92975 11.9709 5.92858 12 5.92858H22.3529C20.2682 2.38119 16.4122 0 12 0C10.6241 0 9.30231 0.231557 8.07144 0.657826V7.37445C9.10973 6.49176 10.449 5.95243 11.9137 5.93201ZM8.07427 12C8.07427 9.83187 9.83187 8.07427 12 8.07427C14.1681 8.07427 15.9257 9.83187 15.9257 12C15.9257 14.1681 14.1681 15.9257 12 15.9257C9.83187 15.9257 8.07427 14.1681 8.07427 12Z" fill="#FE506B"/>
</g>
<defs>
<clipPath id="clip0_287_54">
<rect width="24" height="24" fill="white"/>
</clipPath>
</defs>
</svg>
