<svg width="31" height="30" viewBox="0 0 31 30" fill="none" xmlns="http://www.w3.org/2000/svg">
<path d="M5.19995 0C2.43852 0 0.199951 2.23857 0.199951 5V25C0.199951 27.7614 2.43852 30 5.19995 30H25.2C27.9614 30 30.2 27.7614 30.2 25V5C30.2 2.23857 27.9614 0 25.2 0H5.19995ZM6.68991 6.42857H12.3595L16.3858 12.1498L21.2714 6.42857H23.0571L17.1921 13.2952L24.4243 23.5714H18.756L14.0839 16.9336L8.41424 23.5714H6.62852L13.2775 15.7882L6.68991 6.42857ZM9.42428 7.85714L19.501 22.1429H21.6899L11.6132 7.85714H9.42428Z" fill="black"/>
</svg>
